<svg xmlns="http://www.w3.org/2000/svg" width="36" height="36"
    viewBox="0 0 36 36" fill="none">
    <path fill-rule="evenodd" clip-rule="evenodd"
        d="M18 3.19231C9.82193 3.19231 3.19231 9.82193 3.19231 18C3.19231 26.1781 9.82193 32.8076 18 32.8076C26.1781 32.8076 32.8076 26.1781 32.8076 18C32.8076 9.82193 26.1781 3.19231 18 3.19231ZM0.5 18C0.5 8.33501 8.33501 0.5 18 0.5C27.6649 0.5 35.5 8.33501 35.5 18C35.5 27.6649 27.6649 35.5 18 35.5C8.33501 35.5 0.5 27.6649 0.5 18Z"
        fill="white" />
    <path fill-rule="evenodd" clip-rule="evenodd"
        d="M18 10.3718C18.7434 10.3718 19.3461 10.9744 19.3461 11.7179V18.8974C19.3461 19.6409 18.7434 20.2436 18 20.2436C17.2566 20.2436 16.6539 19.6409 16.6539 18.8974V11.7179C16.6539 10.9744 17.2566 10.3718 18 10.3718Z"
        fill="white" />
    <path
        d="M19.7948 24.282C19.7948 25.2734 18.9912 26.077 18 26.077C17.0088 26.077 16.2052 25.2734 16.2052 24.282C16.2052 23.2908 17.0088 22.4872 18 22.4872C18.9912 22.4872 19.7948 23.2908 19.7948 24.282Z"
        fill="white" />
</svg>