<svg width="148" height="40" viewBox="0 0 148 40" fill="none"
    xmlns="http://www.w3.org/2000/svg">
    <g clip-path="url(#clip0_2_285)">
        <path
            d="M140.083 19.0408L147.999 40C145.666 39.6663 143.334 39.2489 140.958 38.874L136.499 27.2915L131.916 37.9167C129.667 37.5418 127.457 37.4156 125.208 37.1244L133.25 18.7909L125.957 0H132.708L136.791 10.499L141.167 0H147.999L140.083 19.0408ZM120.625 0H114.5V36.3333C116.5 36.4583 118.583 36.5408 120.625 36.7907V0ZM109.207 35.9159C103.625 35.541 98.0411 35.2085 92.3335 35.0823V0H98.5822V29.1661C102.166 29.2499 105.749 29.541 109.207 29.7073V35.9159ZM85.6663 14.2081V20.458H77.1256V34.6662H70.9582V0H88.4582V6.24988H77.1256V14.2081H85.6663ZM60.458 6.24988V34.9998C58.3747 34.9998 56.2502 34.9998 54.2081 35.0823V6.24988H47.7496V0H66.9579V6.24988H60.458ZM40.9998 20.7905C38.2504 20.7905 34.9998 20.7905 32.6666 20.9167V30.2084C36.3333 29.9572 40 29.666 43.7079 29.541V35.541L26.4167 36.9169V0H43.7079V6.24988H32.6666V14.6655C35.0836 14.6655 38.7915 14.5406 40.9998 14.5406V20.7905ZM6.37486 17.2912V39.1239C4.12535 39.3751 2.12454 39.6663 0 40V0H5.9587L14.0832 22.7088V0H20.3331V37.4156C18.1248 37.7917 15.8753 37.9167 13.4995 38.2491L6.37486 17.2912Z"
            fill="#E50914" />
    </g>
    <defs>
        <clippath id="clip0_2_285">
            <rect width="148" height="40" fill="white" />
        </clippath>
    </defs>
</svg>